<svg xmlns="http://www.w3.org/2000/svg" width="82.881" height="66.595" viewBox="0 0 82.881 66.595">
  <g id="writers-bloc-logo-400x300-black" transform="translate(-25 287.863)">
    <path id="Path_1" data-name="Path 1" d="M214.173-287.536a18.882,18.882,0,0,0-7.938,3.933,16.554,16.554,0,0,0-5.108,8.514,20.961,20.961,0,0,0,.12,7.459c2.806,10.577,14.27,15.133,22.52,8.946a15.424,15.424,0,0,0,4.773-6,12.708,12.708,0,0,1,1.127-2.087,40.316,40.316,0,0,1,1.895,6.571c1.151,6.955-.24,13.335-4.341,19.978a47.768,47.768,0,0,1-8.874,9.4,59.489,59.489,0,0,1-6.835,4.173,27.865,27.865,0,0,0,1.559,5.372c.36.12,6.787-3.717,9.761-5.8a71.313,71.313,0,0,0,10.361-10.1,39.961,39.961,0,0,0,7.938-16.668,67.619,67.619,0,0,0,.1-14.27,26.943,26.943,0,0,0-7.315-13.622,19.848,19.848,0,0,0-10.672-5.828A32.761,32.761,0,0,0,214.173-287.536Z" transform="translate(-133.676)" fill="#fff"/>
    <path id="Path_2" data-name="Path 2" d="M25-226.928c0,.048.312,1.2.7,2.59.384,1.367.887,3.238,1.1,4.125.408,1.511.48,1.631,1.031,1.559.576-.072.672-.312,1.559-3.478a16.052,16.052,0,0,1,1.127-3.31,2.29,2.29,0,0,1,.312,1.007c.1.48.432,1.991.791,3.358.576,2.23.7,2.47,1.2,2.47s.648-.264,1.3-2.47c.408-1.343,1.007-3.238,1.3-4.2L35.96-227h-.552c-.312,0-.576.048-.576.1,0,.192-1.679,6.26-1.823,6.619-.1.192-.552-1.2-1.031-3.118-.815-3.238-.935-3.478-1.487-3.549s-.624.072-1.535,3.43a27.7,27.7,0,0,1-1.079,3.478,25.862,25.862,0,0,1-.959-3.478c-.743-3.238-.839-3.478-1.367-3.478C25.24-227,25-226.976,25-226.928Z" transform="translate(0 -46.266)" fill="#fff"/>
    <path id="Path_3" data-name="Path 3" d="M93.242-226.591a.622.622,0,0,0,.1.648.67.67,0,0,0,1.127-.408A.653.653,0,0,0,93.242-226.591Z" transform="translate(-51.837 -46.316)" fill="#fff"/>
    <path id="Path_4" data-name="Path 4" d="M105.271-223.679c-.168.048-.312.432-.312.815,0,.528-.12.7-.48.7-.264,0-.48.168-.48.36s.216.36.48.36c.456,0,.48.168.48,2.158s.048,2.23.6,2.758c.6.6.983.719,1.655.456.552-.216.48-.791-.072-.648-.791.216-1.223-.767-1.223-2.854v-1.871h.839c.576,0,.839-.12.839-.36s-.264-.36-.839-.36c-.791,0-.839-.048-.839-.839C105.919-223.847,105.847-223.919,105.271-223.679Z" transform="translate(-60.053 -48.7)" fill="#fff"/>
    <path id="Path_5" data-name="Path 5" d="M77.278-217.327a2.018,2.018,0,0,0-.815.576c-.432.528-.719.48-.576-.1.1-.36,0-.48-.384-.48-.48,0-.5.1-.5,3,0,2.83.024,3,.48,3,.432,0,.48-.168.48-1.895,0-1.7.072-1.991.624-2.638a1.946,1.946,0,0,1,1.079-.743c.24,0,.456-.144.456-.336C78.118-217.423,77.854-217.543,77.278-217.327Z" transform="translate(-38.009 -53.54)" fill="#fff"/>
    <path id="Path_6" data-name="Path 6" d="M125.732-217.332a3.284,3.284,0,0,0-2.015,3.957,2.475,2.475,0,0,0,1.967,2.039c1.151.288,3.07.048,3.07-.408,0-.24-.288-.288-1.151-.168-1.439.168-2.542-.336-2.878-1.343a1.324,1.324,0,0,1-.12-.839,11.958,11.958,0,0,1,2.4-.144c2.494,0,2.59-.1,1.895-1.8A2.489,2.489,0,0,0,125.732-217.332Zm1.3.6a2.635,2.635,0,0,1,1.247,1.655,6.629,6.629,0,0,1-1.8.12c-1.1,0-1.8-.1-1.8-.264a1.879,1.879,0,0,1,1.031-1.415A1.435,1.435,0,0,1,127.027-216.733Z" transform="translate(-74.974 -53.511)" fill="#fff"/>
    <path id="Path_7" data-name="Path 7" d="M155.967-217.169c-.408.192-.767.456-.767.6a.24.24,0,0,1-.24.24c-.12,0-.24-.216-.24-.48s-.168-.48-.36-.48c-.312,0-.36.5-.36,3,0,2.83.024,3,.48,3,.432,0,.48-.168.48-2.039s.048-2.111.6-2.638a1.834,1.834,0,0,1,1.079-.6c.264,0,.48-.144.48-.336C157.118-217.457,156.83-217.505,155.967-217.169Z" transform="translate(-98.062 -53.578)" fill="#fff"/>
    <path id="Path_8" data-name="Path 8" d="M172.144-217.406a2.258,2.258,0,0,0-1.559,1.631c0,.648.791,1.391,1.991,1.895.672.264.887.5.887.911a1.381,1.381,0,0,1-.288.863,2.235,2.235,0,0,1-2.111.048c-.312-.168-.456-.144-.576.144-.192.48.408.7,1.823.672a2.112,2.112,0,0,0,2.254-1.343c.216-.7-.5-1.583-1.775-2.182-1.151-.552-1.415-.983-1.007-1.607.144-.24.576-.336,1.319-.312.959.024,1.391-.192.911-.48A3.783,3.783,0,0,0,172.144-217.406Z" transform="translate(-110.57 -53.534)" fill="#fff"/>
    <path id="Path_9" data-name="Path 9" d="M94-214c0,2.83.024,3,.48,3s.48-.168.48-3-.024-3-.48-3S94-216.832,94-214Z" transform="translate(-52.452 -53.868)" fill="#fff"/>
    <path id="Path_10" data-name="Path 10" d="M85-162.445v7.555h1.679V-170H85Z" transform="translate(-45.61 -89.596)" fill="#fff"/>
    <path id="Path_11" data-name="Path 11" d="M35.168-166.832c-.1.072-.168,3.334-.168,7.219v7.051l2.95-.1c3.382-.1,4.821-.6,5.684-1.967a4.079,4.079,0,0,0-.168-4.245A5.3,5.3,0,0,0,41.955-160c-.767-.312-.791-.36-.384-.624,1.415-.839,1.895-1.487,2.015-2.806a2.3,2.3,0,0,0-.456-1.991c-.935-1.2-2.158-1.583-5.156-1.583A12.768,12.768,0,0,0,35.168-166.832Zm6.116,1.967c.6.672.7.959.6,1.631-.264,1.535-1.223,2.158-3.525,2.254l-1.559.072-.072-2.134a12.532,12.532,0,0,1,.072-2.47c.1-.264.528-.312,1.943-.24C40.468-165.681,40.612-165.633,41.284-164.866Zm-.648,5.636a3.334,3.334,0,0,1,1.8,2.374,3.374,3.374,0,0,1-1.391,2.374,6.97,6.97,0,0,1-3.741.576c-.624-.144-.624-.144-.624-2.9v-2.758h1.559A7.868,7.868,0,0,1,40.636-159.23Z" transform="translate(-7.602 -91.876)" fill="#fff"/>
    <path id="Path_12" data-name="Path 12" d="M106.791-150.5c-4.1,1.3-4.7,7.89-.911,9.809a4.749,4.749,0,0,0,4.029.384c2.518-.743,3.861-2.854,3.621-5.708-.24-2.782-1.895-4.461-4.533-4.629A8.032,8.032,0,0,0,106.791-150.5Zm3.43,1.631a4.315,4.315,0,0,1,1.463,3.5,3.9,3.9,0,0,1-1.463,3.358,3.04,3.04,0,0,1-4.7-1.463c-.672-1.583-.168-4.389.935-5.3A3.241,3.241,0,0,1,110.221-148.873Z" transform="translate(-59.559 -104.296)" fill="#fff"/>
    <path id="Path_13" data-name="Path 13" d="M157.981-150.46a5.8,5.8,0,0,0-3.142,2.206,6.794,6.794,0,0,0-.552,4.869c.815,2.494,3.358,3.813,6.236,3.262,1.535-.288,1.7-.432,1.511-1.151-.1-.384-.24-.5-.528-.384a4.347,4.347,0,0,1-4.677-.887,4.147,4.147,0,0,1,.24-5.732c.815-.839.863-.839,2.854-.839,1.775,0,2.063-.048,2.182-.456a.724.724,0,0,0-.072-.648A9.386,9.386,0,0,0,157.981-150.46Z" transform="translate(-98.11 -104.363)" fill="#fff"/>
  </g>
</svg>
